HIERARCHY
ROOT hip
{
  OFFSET 0 0 0
  CHANNELS 6 Xposition Yposition Zposition Zrotation Yrotation Xrotation
  JOINT abdomen
  {
    OFFSET 0 20.6881 -0.73152
    CHANNELS 3 Zrotation Xrotation Yrotation
    JOINT chest
    {
      OFFSET 0 11.7043 -0.48768
      CHANNELS 3 Zrotation Xrotation Yrotation
      JOINT neck
      {
        OFFSET 0 22.1894 -2.19456
        CHANNELS 3 Zrotation Xrotation Yrotation
        JOINT head
        {
          OFFSET -0.24384 7.07133 1.2192
          CHANNELS 3 Zrotation Xrotation Yrotation
          JOINT leftEye
          {
            OFFSET 4.14528 8.04674 8.04672
            CHANNELS 3 Zrotation Xrotation Yrotation
            End Site
            {
              OFFSET 1 0 0
            }
          }
          JOINT rightEye
          {
            OFFSET -3.6576 8.04674 8.04672
            CHANNELS 3 Zrotation Xrotation Yrotation
            End Site
            {
              OFFSET 1 0 0
            }
          }
        }
      }
      JOINT rCollar
      {
        OFFSET -2.68224 19.2634 -4.8768
        CHANNELS 3 Zrotation Xrotation Yrotation
        JOINT rShldr
        {
          OFFSET -8.77824 -1.95073 1.46304
          CHANNELS 3 Zrotation Xrotation Yrotation
          JOINT rForeArm
          {
            OFFSET -28.1742 -1.7115 0.48768
            CHANNELS 3 Zrotation Xrotation Yrotation
            JOINT rHand
            {
              OFFSET -22.5879 0.773209 7.07136
              CHANNELS 3 Zrotation Xrotation Yrotation
              JOINT rThumb1
              {
                OFFSET -1.2192 -0.487915 3.41376
                CHANNELS 3 Zrotation Xrotation Yrotation
                JOINT rThumb2
                {
                  OFFSET -3.37035 -0.52449 3.41376
                  CHANNELS 3 Zrotation Xrotation Yrotation
                  End Site
                  {
                    OFFSET -1.78271 -1.18214 1.43049
                  }
                }
              }
              JOINT rIndex1
              {
                OFFSET -7.75947 0.938293 5.60832
                CHANNELS 3 Zrotation Xrotation Yrotation
                JOINT rIndex2
                {
                  OFFSET -2.54057 -0.884171 1.56538
                  CHANNELS 3 Zrotation Xrotation Yrotation
                  End Site
                  {
                    OFFSET -1.62519 -0.234802 1.16502
                  }
                }
              }
              JOINT rMid1
              {
                OFFSET -8.24714 1.18213 3.41376
                CHANNELS 3 Zrotation Xrotation Yrotation
                JOINT rMid2
                {
                  OFFSET -3.10165 -0.590103 1.0647
                  CHANNELS 3 Zrotation Xrotation Yrotation
                  End Site
                  {
                    OFFSET -2.48547 -0.328903 0.83742
                  }
                }
              }
              JOINT rRing1
              {
                OFFSET -8.82822 0.546677 1.51678
                CHANNELS 3 Zrotation Xrotation Yrotation
                JOINT rRing2
                {
                  OFFSET -2.60934 -0.819778 -0.0198488
                  CHANNELS 3 Zrotation Xrotation Yrotation
                  End Site
                  {
                    OFFSET -2.33842 -0.294052 0.168128
                  }
                }
              }
              JOINT rPinky1
              {
                OFFSET -8.27202 -0.0477905 -0.4584
                CHANNELS 3 Zrotation Xrotation Yrotation
                JOINT rPinky2
                {
                  OFFSET -1.82734 -0.647385 -0.700984
                  CHANNELS 3 Zrotation Xrotation Yrotation
                  End Site
                  {
                    OFFSET -1.69225 -0.51767 -0.607171
                  }
                }
              }
            }
          }
        }
      }
      JOINT lCollar
      {
        OFFSET 2.68224 19.2634 -4.8768
        CHANNELS 3 Zrotation Xrotation Yrotation
        JOINT lShldr
        {
          OFFSET 8.77824 -1.95073 1.46304
          CHANNELS 3 Zrotation Xrotation Yrotation
          JOINT lForeArm
          {
            OFFSET 28.1742 -1.7115 0.48768
            CHANNELS 3 Zrotation Xrotation Yrotation
            JOINT lHand
            {
              OFFSET 22.5879 0.773209 7.07136
              CHANNELS 3 Zrotation Xrotation Yrotation
              JOINT lThumb1
              {
                OFFSET 1.2192 -0.487915 3.41376
                CHANNELS 3 Zrotation Xrotation Yrotation
                JOINT lThumb2
                {
                  OFFSET 3.37035 -0.52449 3.41376
                  CHANNELS 3 Zrotation Xrotation Yrotation
                  End Site
                  {
                    OFFSET 1.78271 -1.18214 1.43049
                  }
                }
              }
              JOINT lIndex1
              {
                OFFSET 7.75947 0.938293 5.60832
                CHANNELS 3 Zrotation Xrotation Yrotation
                JOINT lIndex2
                {
                  OFFSET 2.54057 -0.884171 1.56538
                  CHANNELS 3 Zrotation Xrotation Yrotation
                  End Site
                  {
                    OFFSET 1.62519 -0.234802 1.16502
                  }
                }
              }
              JOINT lMid1
              {
                OFFSET 8.24714 1.18213 3.41376
                CHANNELS 3 Zrotation Xrotation Yrotation
                JOINT lMid2
                {
                  OFFSET 3.10165 -0.590103 1.0647
                  CHANNELS 3 Zrotation Xrotation Yrotation
                  End Site
                  {
                    OFFSET 2.48547 -0.328903 0.83742
                  }
                }
              }
              JOINT lRing1
              {
                OFFSET 8.82822 0.546677 1.51678
                CHANNELS 3 Zrotation Xrotation Yrotation
                JOINT lRing2
                {
                  OFFSET 2.60934 -0.819778 -0.0198488
                  CHANNELS 3 Zrotation Xrotation Yrotation
                  End Site
                  {
                    OFFSET 2.33842 -0.294052 0.168128
                  }
                }
              }
              JOINT lPinky1
              {
                OFFSET 8.27202 -0.0477905 -0.4584
                CHANNELS 3 Zrotation Xrotation Yrotation
                JOINT lPinky2
                {
                  OFFSET 1.82734 -0.647385 -0.700984
                  CHANNELS 3 Zrotation Xrotation Yrotation
                  End Site
                  {
                    OFFSET 1.69225 -0.51767 -0.607171
                  }
                }
              }
            }
          }
        }
      }
    }
  }
  JOINT rButtock
  {
    OFFSET -8.77824 4.35084 1.2192
    CHANNELS 3 Zrotation Xrotation Yrotation
    JOINT rThigh
    {
      OFFSET 0 -1.70687 -2.19456
      CHANNELS 3 Zrotation Xrotation Yrotation
      JOINT rShin
      {
        OFFSET 0 -36.8199 0.73152
        CHANNELS 3 Zrotation Xrotation Yrotation
        JOINT rFoot
        {
          OFFSET 0.73152 -45.1104 -5.12064
          CHANNELS 3 Zrotation Xrotation Yrotation
          End Site
          {
            OFFSET -1.1221 -3.69964 12.103
          }
        }
      }
    }
  }
  JOINT lButtock
  {
    OFFSET 8.77824 4.35084 1.2192
    CHANNELS 3 Zrotation Xrotation Yrotation
    JOINT lThigh
    {
      OFFSET 0 -1.70687 -2.19456
      CHANNELS 3 Zrotation Xrotation Yrotation
      JOINT lShin
      {
        OFFSET 0 -36.8199 0.73152
        CHANNELS 3 Zrotation Xrotation Yrotation
        JOINT lFoot
        {
          OFFSET -0.73152 -45.1104 -5.12064
          CHANNELS 3 Zrotation Xrotation Yrotation
          End Site
          {
            OFFSET 1.1221 -3.69964 12.103
          }
        }
      }
    }
  }
}
MOTION
Frames:	6
Frame Time:	0.03333
0.0 0.0 0.0 0.0 0.0 0.0 0.0 0.0 0.0 0.0 0.0 0.0 0.0 0.0 0.0 0.0 0.0 0.0 0.0 0.0 0.0 0.0 0.0 0.0 0.0 0.0 0.0 0.0 0.0 0.0 0.0 0.0 0.0 0.0 0.0 0.0 0.0 0.0 0.0 0.0 0.0 0.0 0.0 0.0 0.0 0.0 0.0 0.0 0.0 0.0 0.0 0.0 0.0 0.0 0.0 0.0 0.0 0.0 0.0 0.0 0.0 0.0 0.0 0.0 0.0 0.0 0.0 0.0 0.0 0.0 0.0 0.0 0.0 0.0 0.0 0.0 0.0 0.0 0.0 0.0 0.0 0.0 0.0 0.0 0.0 0.0 0.0 0.0 0.0 0.0 0.0 0.0 0.0 0.0 0.0 0.0 0.0 0.0 0.0 0.0 0.0 0.0 0.0 0.0 0.0 0.0 0.0 0.0 0.0 0.0 0.0 0.0 0.0 0.0 0.0 0.0 0.0 0.0 0.0 0.0 0.0 0.0 0.0 0.0 0.0 0.0 0.0 0.0 0.0 0.0 0.0 0.0
-0.1934 65.56729999999999 -0.0239 -113.350485 73.805094 -111.940057 12.616519 8.309842 83.004476 -5.648246 -4.991462 -77.482438 -9.3866 23.128569 -79.030794 39.244698 7.870983 93.771067 -6.1e-05 0.0 -0.001314 -0.000227 -0.0 0.001285 -9.809568 35.175715 11.369716 -95.11429 -25.042038 -174.717681 -177.243975 16.260598 -69.656237 -12.250083 -28.974527 -7.449004 -165.623889 -3.29542 89.682534 14.467539 -57.170458 17.911495 -60.579096 42.69484 49.14783 -162.946908 -8.121918 112.892869 -3.7318 10.179275 2.286719 -170.21623 -26.193167 144.300317 -145.09444 -1.814229 -178.55715 12.161738 32.847575 -5.278158 -135.120534 -13.284025 -132.517909 -139.945927 -6.748934 -136.392548 154.935564 0.038385 -161.067313 -155.54189 21.902515 113.341768 163.570758 65.781672 -122.81643 -39.196282 -49.756941 -51.249854 -6.080875 -6.067055 0.616611 84.995921 26.176949 -76.191584 -6.613014 -11.424243 3.259622 160.323616 -13.957662 -110.381586 154.080771 11.790278 -139.387288 50.349799 60.716583 -44.010874 145.111534 -0.608723 178.9364 145.219488 -50.311407 167.581701 -11.056982 36.705909 -9.443424 -4.494593 7.847761 -1.978617 -0.000667 -0.000203 -0.002389 -8.444542 3.476774 -20.992907 -12.233858 52.874335 -158.558173 9.096076 34.724429 144.849432 -0.000183 -0.000492 0.000495 76.037121 -58.835141 -22.207961 -87.405268 1.016642 -28.15175 86.405671 -46.14889 177.739025
-0.41159999999999997 65.5188 -0.024399999999999998 -113.324648 73.940412 -111.969266 12.423795 7.601504 103.696697 -6.249012 -2.850963 -98.142435 11.929593 24.849272 112.517341 -34.658649 19.485216 -90.77639 0.001537 0.0 0.001825 0.001537 0.0 0.001825 -150.403307 20.726495 155.544346 -103.813432 16.527534 79.689704 -163.800952 42.076634 -78.47405 -9.790782 -40.345961 -9.636448 -179.315019 -16.82121 89.366985 -141.593494 11.967154 74.1037 10.27876 -18.174787 -4.584021 -2.032595 20.435411 4.805895 13.718911 -41.893408 -2.999681 -159.956132 5.425627 141.919758 0.006055 1.136762 0.35666 -155.881161 -7.14108 172.71027 -156.02435 52.381634 -149.951876 -70.388425 -53.350362 -69.489353 140.297444 43.810182 -144.554896 -148.318062 -12.89711 142.857046 6.784446 -36.823004 -3.037313 93.456193 81.839092 -101.590075 3.714127 3.624129 -0.685794 -20.683362 -29.445027 11.608233 103.200769 36.733849 -87.232831 162.566064 -7.552534 -115.619273 -6.404949 -20.003306 2.685626 158.461645 9.383745 -141.250774 145.076818 5.493366 -179.14402 154.759996 -11.200292 177.72691 -0.755264 2.006559 -0.696848 4.112504 -15.651206 5.801484 -179.995059 75.750329 -0.002945 146.793857 75.140012 -70.167365 -49.849676 5.557032 -166.153468 -64.547067 -18.281375 -141.801002 0.000393 0.000932 7e-05 73.806544 -59.0473 25.586308 -91.580554 57.374778 -100.453678 110.871796 27.897756 172.320519
-0.7188 65.4697 0.0349 -113.54166 74.121196 -112.121649 11.943218 8.198822 92.835597 -6.122438 -4.042435 -87.337402 -7.453852 16.980309 -43.368592 31.517406 -12.464677 63.762007 -0.003853 0.0 -0.00378 -0.003049 -0.0 0.001264 -136.858558 48.341556 140.953801 -111.697905 1.228853 105.454581 9.611316 -42.551051 -140.412098 -152.904467 25.310772 132.411954 -13.200516 12.287528 3.406517 -145.727883 -50.326873 111.268484 -49.383452 40.566992 39.13263 5.33163 1.975577 -2.436122 -165.524414 -22.134986 144.954018 -168.424851 -20.141586 143.90383 -145.056821 -3.488538 -178.028396 10.971786 5.770109 -8.288067 -132.147933 -18.68268 -129.679416 146.445902 84.347142 -105.499617 -1.691615 -11.61772 2.409562 127.79911 -2.684939 -101.423678 163.745443 37.529196 -179.410205 81.055092 81.718775 -89.570426 -4.572304 -4.556504 0.523472 128.38619 -20.939285 -115.185601 -50.77521 -66.812759 -8.194331 158.066674 -17.721421 -114.5122 60.544277 59.692295 -53.089705 8.252453 28.193498 -6.959039 0.368387 -10.232198 3.257733 -1.727487 51.356312 -11.395494 117.374412 -36.533428 115.317463 -7.404548 11.661006 -1.658622 -0.005445 0.000853 -0.004948 -8.54157 0.994736 -95.083165 -43.606987 4.131839 92.280341 -83.983415 20.570374 -3.381436 0.002707 -0.001051 0.003248 72.418636 -61.048047 126.669378 87.479885 14.684527 18.594495 -108.42014 -53.022046 150.406983
-1.1504 65.42869999999999 0.0558 -113.653799 74.387672 -112.15247 16.141697 8.878144 -80.114479 6.377056 -1.53256 85.452762 10.540256 17.505037 68.36729 -31.615665 -6.800087 -53.329852 7.9e-05 -0.0 -0.003401 -0.004678 -0.0 0.002776 -0.133829 0.793961 0.178002 87.808921 32.216815 -41.419412 37.537293 16.181626 110.78144 -23.502162 10.429104 3.60032 -4.759293 4.624459 0.918048 -153.478767 -62.147384 115.713109 170.057512 -65.589166 110.306063 3.991983 20.283261 -3.290572 -8.929464 21.914748 6.037084 -0.500775 10.741657 1.780518 -145.097461 4.442548 179.474925 -153.16677 -22.4583 -175.854616 -162.842526 73.040338 -150.77199 -152.60202 24.964296 -144.952937 158.410042 -62.586588 -174.297724 -85.787316 31.508446 22.134679 1.452134 -5.941801 -10.269121 108.230799 82.632094 -113.818338 2.65524 2.601292 -0.46706 91.248998 17.72547 -83.956498 5.151261 7.864221 -3.143059 8.276558 23.408188 -7.000286 6.425018 16.613741 -4.163482 -31.259702 -62.050311 -7.756867 145.058913 -3.520328 178.019769 4.110408 -58.012703 25.293886 144.53175 10.060882 141.25122 63.908374 -52.884628 63.915415 0.011555 0.000359 0.00734 -9.214763 -0.149898 -89.400553 -44.650818 10.175264 102.087749 10.47628 -47.735985 -46.762221 -179.984755 75.74956 -0.012724 -152.949123 -4.133045 62.966351 88.098862 10.966688 26.22451 -160.021914 9.13227 107.667915
-1.6601000000000001 65.3655 0.17309999999999998 -114.331429 74.998033 -112.723738 10.591774 9.728482 65.968639 -4.803519 -6.820465 -60.490587 9.393853 29.815391 144.817195 -26.398894 37.511885 -118.733723 0.001158 0.0 0.002756 -0.000578 0.0 -0.004789 -12.097734 39.663143 13.823739 67.716824 68.450022 10.770787 -96.455644 -52.476877 16.774096 -1.222724 -75.224818 -13.17897 -175.116421 -12.765094 89.813463 155.831298 -40.023937 101.393204 -95.262562 39.698904 80.27025 3.438305 4.579047 -4.844691 3.649876 -11.157585 -1.762146 -24.749029 48.811249 20.250387 -0.255626 -8.346621 -2.649649 -155.176618 -8.465958 172.925929 -148.713707 24.096926 -144.865603 -158.541866 45.111057 -146.670144 -0.224849 -1.37101 0.30205 121.058924 6.931442 -94.051074 -8.599219 -46.566087 40.990022 -63.773557 -59.628566 -73.976978 0.303095 0.299504 -0.047326 31.382956 24.089078 -28.041393 42.105921 38.242361 -32.703897 172.088148 -22.733974 -111.23914 -178.389777 -60.337569 -141.173061 143.392447 38.553358 -130.446353 -0.001868 0.654315 -0.206471 156.29452 -16.946498 -173.851104 152.550552 38.701122 147.830019 106.046837 -46.032767 104.268968 -0.009701 -0.000831 -0.006522 -12.393561 -1.803444 88.704817 60.751748 -10.638128 93.193408 48.150937 1.631871 145.991766 -0.004433 0.000402 -0.002704 72.785922 -60.020336 -6.312224 -77.596179 29.797552 120.941824 67.268484 -49.720358 -32.956887
